<?xml version="1.0" standalone="no"?>
<!DOCTYPE svg PUBLIC "-//W3C//DTD SVG 20010904//EN"
 "http://www.w3.org/TR/2001/REC-SVG-20010904/DTD/svg10.dtd">
<svg version="1.0" xmlns="http://www.w3.org/2000/svg"
 width="1024.000000pt" height="1024.000000pt" viewBox="0 0 1024.000000 1024.000000"
 preserveAspectRatio="xMidYMid meet">

<g transform="translate(0.000000,1024.000000) scale(0.100000,-0.100000)"
fill="#000000" stroke="none">
<path d="M0 5120 l0 -5120 5120 0 5120 0 0 5120 0 5120 -5120 0 -5120 0 0
-5120z m5165 1712 c26 -47 27 -56 17 -86 -12 -33 -16 -76 -7 -76 3 0 22 17 43
38 22 22 49 41 61 45 19 4 21 2 16 -16 -6 -21 -55 -139 -60 -145 -2 -2 -18 4
-36 14 -32 16 -33 16 -54 -10 -25 -31 -35 -33 -35 -7 0 29 -30 35 -63 11 -16
-12 -30 -20 -31 -18 -9 12 -50 119 -56 145 -6 26 -5 31 9 26 9 -3 33 -22 53
-41 45 -43 61 -35 48 23 -8 35 -6 47 23 102 17 34 35 59 38 55 3 -4 19 -31 34
-60z m82 -278 c13 -4 20 -10 17 -15 -7 -12 -284 -12 -284 0 0 15 223 27 267
15z m503 -140 l0 -37 -37 7 c-197 35 -890 37 -1188 3 -16 -2 -21 5 -23 31 l-3
32 625 0 626 0 0 -36z m-236 -151 c3 -43 13 -220 22 -393 8 -173 19 -367 23
-430 5 -63 7 -118 4 -122 -2 -5 -200 -8 -440 -8 l-436 0 6 93 c3 50 16 282 28
515 l24 422 381 0 382 0 6 -77z m829 -831 l237 -2 0 25 c0 14 2 25 5 25 11 0
135 -65 135 -70 0 -7 -121 -70 -133 -70 -4 0 -7 9 -7 19 0 11 -4 22 -9 26 -5
3 -111 2 -235 -1 l-225 -7 -6 -29 c-8 -33 -21 -36 -30 -7 -4 11 -22 27 -41 35
-41 17 -43 38 -6 61 15 10 36 29 47 43 l20 25 5 -35 5 -35 238 -3z m-1893
-704 c0 -321 1 -345 19 -375 11 -17 17 -34 14 -37 -10 -9 -156 -7 -172 3 -8 5
-11 16 -7 29 10 29 -8 35 -30 10 -26 -29 -92 -58 -134 -58 -57 0 -121 38 -154
93 -26 42 -31 61 -34 137 -3 67 0 102 14 147 37 119 142 181 257 152 28 -8 57
-14 62 -14 6 0 9 34 7 90 -3 80 -6 93 -28 115 l-25 25 88 11 c48 6 96 12 106
13 16 1 17 -21 17 -341z m913 323 c61 -24 78 -96 33 -147 -27 -32 -80 -37
-121 -10 -49 32 -40 125 15 153 30 15 41 16 73 4z m1948 -17 c48 -43 27 -133
-34 -153 -63 -21 -117 18 -117 85 0 35 5 47 32 69 26 22 39 26 66 21 19 -3 43
-13 53 -22z m378 11 c33 -17 41 -33 41 -84 0 -66 -69 -107 -129 -77 -59 31
-70 99 -22 147 33 32 67 37 110 14z m342 -14 c51 -52 34 -128 -35 -151 -63
-20 -116 21 -116 91 0 29 7 43 31 63 41 35 83 34 120 -3z m-5762 -69 c156
-253 227 -362 234 -362 4 0 7 85 7 189 0 184 -1 189 -25 225 l-24 36 94 0 94
0 -24 -42 -25 -43 0 -327 0 -328 -54 0 -54 0 -167 260 c-92 143 -170 260 -173
260 -4 0 -7 -101 -7 -224 0 -215 1 -225 22 -254 12 -16 19 -32 16 -36 -7 -7
-183 -8 -183 -1 0 2 11 21 25 41 l25 37 0 287 0 287 -25 37 c-14 20 -25 39
-25 41 0 3 48 5 108 5 l107 -1 54 -87z m4034 72 c72 -25 127 -101 127 -179 0
-69 -59 -160 -120 -185 -30 -13 -37 -24 -21 -34 5 -3 30 -43 56 -89 55 -94 97
-157 131 -194 13 -14 21 -29 18 -34 -3 -5 -47 -9 -98 -9 l-93 0 -27 40 c-14
22 -26 42 -26 44 0 2 -30 56 -66 120 -61 108 -67 116 -95 116 l-31 0 4 -129
c2 -106 6 -132 21 -148 34 -39 23 -43 -108 -43 -134 0 -140 3 -105 47 19 24
20 41 20 329 l0 302 -26 31 -26 31 209 0 c165 0 219 -3 256 -16z m-2528 -228
c45 -35 55 -80 55 -257 0 -130 3 -161 20 -196 l19 -43 -116 0 -115 0 18 28
c17 24 19 47 19 188 0 145 -2 164 -19 183 -22 24 -73 28 -98 9 -42 -35 -48
-58 -48 -201 0 -98 4 -148 14 -172 l15 -35 -115 0 -114 0 20 37 c18 34 20 57
20 224 0 175 -1 188 -21 213 -12 15 -20 29 -18 31 2 2 44 5 94 6 83 3 90 2 93
-16 10 -69 9 -68 52 -26 21 21 54 43 72 49 48 16 116 6 153 -22z m1246 9 c55
-29 63 -61 69 -267 3 -130 9 -191 18 -200 31 -31 14 -38 -97 -38 l-110 0 16
38 c21 48 25 315 5 349 -27 48 -99 42 -131 -11 -19 -30 -21 -49 -21 -172 0
-100 4 -147 14 -166 8 -15 12 -29 8 -32 -3 -3 -52 -6 -109 -6 -109 0 -118 5
-88 44 12 16 15 58 15 209 0 175 -2 192 -21 223 l-21 34 80 0 c44 0 87 3 96 6
13 5 16 -1 16 -27 0 -41 14 -69 23 -46 7 18 83 72 112 80 29 8 93 -1 126 -18z
m1878 -3 c69 -34 75 -53 81 -252 5 -164 7 -181 27 -208 12 -16 19 -32 16 -36
-9 -9 -146 -7 -159 2 -6 4 -14 20 -18 35 -7 28 -8 28 -29 13 -86 -63 -140 -78
-199 -53 -75 32 -107 93 -93 182 13 92 89 143 228 152 75 6 77 7 77 32 -1 82
-110 102 -190 34 -17 -14 -33 -23 -36 -20 -3 3 -6 26 -7 52 -2 47 -1 48 38 62
99 36 198 37 264 5z m-3792 -1 c68 -31 76 -58 83 -256 4 -152 7 -174 27 -207
l22 -38 -85 0 -85 0 -15 36 -15 35 -34 -29 c-101 -90 -248 -52 -274 69 -15 67
0 123 44 164 38 36 89 53 182 62 38 3 71 11 74 16 10 15 -11 66 -31 77 -38 20
-103 11 -144 -20 -46 -35 -56 -28 -56 36 0 41 0 41 53 57 76 22 202 21 254 -2z
m2303 -213 c1 -175 4 -228 15 -248 8 -14 14 -28 15 -32 0 -5 -49 -8 -110 -8
-60 0 -110 2 -110 5 0 4 8 20 17 38 15 27 18 60 18 212 0 155 -2 185 -17 208
-10 14 -18 31 -18 37 0 6 36 10 95 10 l95 0 0 -222z m1918 -65 c-3 -284 -4
-289 -28 -333 -33 -59 -94 -92 -165 -88 l-50 3 -8 53 c-5 30 -6 56 -3 59 3 4
17 -3 29 -16 27 -25 52 -20 61 12 3 12 6 135 6 272 0 232 -1 252 -20 283 -11
18 -20 35 -20 37 0 3 45 5 101 5 l101 0 -4 -287z m394 58 c3 -204 5 -231 21
-249 16 -18 16 -20 2 -26 -28 -11 -215 -7 -215 4 0 6 7 21 15 34 13 20 16 59
16 212 0 173 -2 190 -21 216 -11 15 -20 30 -20 33 0 3 45 5 99 5 l100 0 3
-229z m328 11 c0 -198 2 -221 20 -255 l20 -37 -120 0 -120 0 20 37 c18 34 20
57 20 218 0 162 -2 183 -20 213 -11 18 -20 35 -20 37 0 3 45 5 100 5 l100 0 0
-218z m-2954 -608 c6 -30 -17 -94 -34 -94 -8 0 -52 66 -52 78 0 4 12 25 26 46
25 37 28 38 40 21 8 -10 16 -33 20 -51z m144 -12 c0 -7 -12 -31 -27 -53 l-27
-41 -23 46 -23 46 22 40 23 40 27 -32 c15 -18 28 -39 28 -46z m-330 18 c25
-25 25 -32 1 -54 -17 -15 -51 -16 -447 -6 -596 14 -1097 30 -1101 34 -6 5 303
14 927 27 300 6 547 13 549 15 12 11 53 2 71 -16z m1130 0 c737 -18 857 -23
765 -32 -44 -4 -388 -14 -764 -23 -636 -14 -686 -14 -703 2 -21 19 -23 34 -6
51 15 15 154 15 708 2z"/>
<path d="M4796 6253 c-3 -21 -6 -149 -6 -285 l0 -248 339 0 340 0 -5 273 c-3
149 -7 278 -10 285 -2 9 -77 12 -327 12 l-324 0 -7 -37z"/>
<path d="M4790 5525 l0 -145 340 0 341 0 -3 143 -3 142 -337 3 -338 2 0 -145z
m72 28 c-2 -18 -8 -33 -13 -33 -5 0 -9 15 -9 33 0 21 5 34 13 34 8 0 11 -11 9
-34z m54 -29 c-9 -23 -26 -6 -26 26 0 35 24 46 28 13 2 -14 1 -31 -2 -39z"/>
<path d="M4163 4735 c-69 -48 -72 -278 -3 -315 36 -19 90 -8 114 23 19 25 21
42 21 149 0 114 -1 121 -24 139 -28 23 -78 25 -108 4z"/>
<path d="M6060 4840 l0 -130 50 0 c93 0 140 45 140 134 0 90 -38 126 -135 126
l-55 0 0 -130z"/>
<path d="M6731 4566 c-51 -28 -68 -109 -31 -146 24 -24 51 -25 89 -5 36 18 41
32 41 106 l0 59 -37 0 c-21 -1 -49 -7 -62 -14z"/>
<path d="M2934 4569 c-27 -14 -54 -60 -54 -93 0 -34 41 -76 75 -76 16 0 38 12
56 29 26 26 29 36 29 90 l0 61 -42 -1 c-24 0 -52 -5 -64 -10z"/>
</g>
</svg>
